<?xml version="1.0" standalone="no"?>
<!DOCTYPE svg PUBLIC "-//W3C//DTD SVG 20010904//EN"
 "http://www.w3.org/TR/2001/REC-SVG-20010904/DTD/svg10.dtd">
<svg version="1.0" xmlns="http://www.w3.org/2000/svg"
 width="1000.000000pt" height="1000.000000pt" viewBox="0 0 1000.000000 1000.000000"
 preserveAspectRatio="xMidYMid meet">
<metadata>
Created by potrace 1.11, written by Peter Selinger 2001-2013
</metadata>
<g transform="translate(0.000000,1000.000000) scale(0.100000,-0.100000)"
fill="#000000" stroke="none">
<path d="M7407 8043 c-1 0 -36 -4 -77 -7 -41 -4 -95 -9 -120 -11 -25 -3 -74
-7 -110 -10 -76 -6 -162 -13 -240 -20 -30 -3 -84 -7 -120 -10 -36 -3 -85 -8
-110 -10 -25 -2 -73 -7 -107 -10 -35 -3 -91 -7 -125 -10 -35 -3 -83 -8 -108
-10 -48 -5 -165 -15 -240 -20 -70 -5 -185 -17 -188 -20 -3 -3 -13 -52 -15 -77
-1 -15 -5 -14 -32 7 -177 144 -311 189 -570 189 -147 1 -295 -20 -451 -63 -29
-8 -33 -7 -36 12 -2 12 -8 21 -13 20 -6 0 -62 -4 -125 -7 -63 -4 -146 -9 -185
-12 -80 -5 -168 -11 -305 -19 -52 -3 -117 -8 -143 -11 l-48 -5 7 36 7 37 -69
-6 c-38 -4 -85 -9 -104 -11 -19 -2 -69 -7 -110 -10 -41 -3 -89 -7 -105 -9 -17
-2 -68 -7 -115 -11 -47 -3 -96 -8 -110 -10 -14 -2 -59 -7 -100 -10 -41 -3 -86
-8 -100 -10 -14 -2 -61 -7 -105 -10 -122 -10 -149 -17 -153 -42 -3 -21 -5 -21
-55 11 -123 77 -253 105 -467 101 -114 -2 -154 -7 -252 -34 -410 -108 -742
-330 -930 -621 -147 -228 -183 -492 -95 -708 65 -162 182 -285 503 -528 157
-119 226 -188 207 -207 -19 -20 -83 -5 -155 37 -65 37 -150 96 -168 116 -21
24 -244 189 -250 185 -5 -3 -36 -60 -70 -128 -34 -67 -132 -258 -217 -425 -90
-176 -151 -307 -147 -314 9 -14 15 -21 85 -107 29 -36 78 -91 110 -124 l58
-59 -4 -97 c-6 -144 -14 -355 -21 -552 l-6 -176 23 -6 c13 -3 62 -16 109 -31
47 -14 87 -25 90 -26 3 0 26 -3 53 -6 54 -7 50 9 27 -129 -5 -33 -12 -73 -14
-90 -13 -76 -59 -351 -70 -410 -20 -109 -111 -582 -127 -660 -12 -55 -23 -110
-25 -122 -2 -12 -25 -120 -50 -240 -55 -262 -53 -251 -59 -285 -3 -14 -16 -78
-30 -142 -30 -138 -30 -139 -7 -132 19 5 68 13 140 22 25 3 48 7 51 9 3 2 31
6 61 10 30 3 62 8 70 10 8 2 33 7 55 10 23 3 50 7 60 9 19 3 82 13 135 21 31
5 216 34 250 40 14 2 48 7 75 11 28 3 53 8 58 11 12 7 8 -14 -13 -67 -24 -62
-25 -70 -3 -65 10 1 47 6 83 9 36 4 76 9 90 11 14 2 50 7 80 10 30 3 87 10
125 15 39 5 95 12 125 15 30 3 65 7 77 9 12 3 53 8 90 11 37 4 78 8 90 10 23
4 23 6 4 -75 -5 -24 -9 -46 -7 -47 2 -2 52 6 112 18 60 11 118 23 129 25 11 2
180 35 375 74 195 39 366 73 380 75 39 6 111 23 116 27 2 2 6 22 9 44 4 21 8
50 10 64 3 14 9 59 15 100 6 41 24 156 40 256 33 198 32 190 50 286 l12 67 41
6 c66 11 185 54 266 97 122 65 203 128 308 237 l73 76 -38 -75 c-21 -41 -119
-232 -217 -425 -98 -192 -182 -355 -187 -362 -21 -27 230 -300 352 -383 93
-63 214 -116 315 -137 272 -57 664 25 889 186 48 34 49 34 43 11 -3 -14 -13
-67 -22 -117 -8 -51 -18 -99 -21 -107 -10 -26 4 -34 43 -26 21 5 58 11 83 14
25 3 56 8 70 10 14 3 43 7 65 11 47 7 158 24 198 30 15 3 39 7 55 10 15 2 50
7 77 11 28 3 59 8 70 10 10 2 37 6 60 9 51 8 86 13 155 25 30 5 75 12 100 15
25 3 52 8 60 10 8 2 40 7 70 11 30 4 64 8 75 10 47 7 102 15 125 19 14 3 43 7
65 10 22 3 51 8 65 10 14 3 39 7 55 9 17 2 49 7 72 11 38 6 42 5 38 -13 -2
-11 -13 -63 -24 -116 -25 -116 -25 -116 -3 -112 24 5 90 15 137 22 22 3 47 7
55 9 8 2 35 7 60 10 25 3 83 12 130 20 47 8 132 21 190 30 107 15 145 22 190
30 14 3 43 7 65 11 22 3 51 7 65 10 14 2 45 7 70 10 25 3 52 7 60 9 8 1 34 6
58 10 39 6 42 9 43 38 0 18 2 41 4 52 2 11 7 43 10 70 3 28 8 61 10 75 6 33
12 75 20 130 9 64 15 103 20 120 2 8 7 42 10 75 4 32 8 62 10 65 1 3 6 30 9
60 4 30 8 66 11 80 8 48 54 345 60 384 3 21 7 48 10 60 2 12 7 44 10 71 3 28
8 57 10 65 2 8 6 33 10 55 14 97 67 409 85 505 21 105 28 119 65 121 24 1 40
4 125 23 116 26 155 37 163 45 5 6 41 168 81 371 3 14 18 93 35 175 42 209 41
207 47 240 3 17 12 57 20 90 7 33 14 64 14 68 0 8 -27 6 -130 -8 -14 -2 -50
-7 -80 -10 -30 -4 -63 -9 -73 -11 -10 -2 -44 -6 -75 -9 -31 -3 -70 -8 -87 -10
-16 -2 -73 -6 -125 -9 l-95 -6 85 31 c47 17 93 35 102 40 10 5 25 9 33 9 8 0
15 5 15 10 0 9 -157 397 -196 485 -7 17 -38 91 -68 165 -59 145 -106 257 -151
358 l-28 63 39 32 c229 185 400 435 483 702 42 138 51 200 46 345 -4 140 -22
225 -65 314 -106 221 -329 331 -665 329 -91 0 -336 -13 -355 -18 -8 -2 -42 -6
-75 -10 -75 -8 -112 -13 -198 -29 -62 -12 -67 -12 -62 3 4 9 13 35 20 59 l13
42 -55 -2 c-30 -2 -55 -4 -56 -5z m-438 -951 c-4 -21 -10 -55 -13 -77 -14 -92
-15 -95 -49 -96 -18 0 -72 -2 -121 -4 l-88 -4 6 32 c3 18 8 43 11 57 3 14 8
41 11 60 12 72 8 69 102 72 48 2 101 1 118 0 31 -4 31 -5 23 -40z m-4293 -269
c-11 -63 -16 -93 -22 -128 -3 -22 -7 -41 -9 -43 -1 -1 -34 29 -73 67 l-70 70
71 21 c40 12 77 23 82 25 20 7 24 5 21 -12z m4103 -796 c-5 -18 -12 -48 -15
-67 -10 -67 -8 -65 -118 -83 -134 -22 -125 -24 -116 21 10 42 17 80 26 133 l6
37 96 1 c53 1 98 4 101 6 2 3 10 0 17 -6 9 -7 10 -19 3 -42z m-1294 -157 c-13
-74 -29 -160 -35 -190 -6 -30 -13 -68 -16 -85 -5 -30 -33 -183 -40 -220 -2
-11 -9 -47 -14 -80 -6 -33 -15 -82 -21 -110 -6 -27 -12 -59 -14 -71 -3 -15
-20 -25 -62 -38 -128 -40 -330 -147 -449 -237 -37 -28 -67 -49 -69 -47 -1 2
-18 28 -38 58 -20 30 -45 67 -56 81 l-21 26 63 13 c34 7 69 13 77 15 23 4 94
18 103 20 4 2 18 3 31 4 26 1 30 14 41 116 3 28 8 57 10 65 2 8 7 38 10 65 3
28 8 59 10 71 3 12 7 39 10 60 3 21 11 65 16 97 6 32 12 73 14 93 3 19 12 67
20 107 8 40 17 88 20 107 3 19 9 38 13 41 4 3 41 14 82 24 94 23 175 57 265
111 39 23 71 41 72 40 1 -1 -9 -62 -22 -136z m1845 -1596 c0 -19 13 -25 113
-53 61 -17 133 -34 160 -37 l48 -7 -6 -41 c-9 -61 -15 -98 -20 -126 -3 -14 -7
-40 -10 -57 -3 -18 -7 -46 -10 -63 -3 -16 -7 -45 -10 -62 -3 -18 -14 -80 -25
-138 -10 -58 -21 -121 -24 -140 -7 -38 -10 -58 -26 -135 -5 -27 -12 -65 -15
-82 -8 -50 -14 -86 -20 -113 -4 -14 -15 -70 -25 -125 -10 -55 -23 -120 -29
-145 -5 -25 -12 -58 -15 -74 -13 -74 -28 -136 -32 -136 -2 0 -2 17 1 38 2 20
7 66 10 102 3 36 8 100 11 143 4 42 3 77 -2 77 -5 0 -47 -7 -94 -14 -47 -8
-101 -17 -120 -20 -19 -3 -46 -8 -60 -11 -25 -5 -75 -12 -140 -21 -19 -2 -47
-7 -62 -10 -26 -5 -26 -4 -19 28 5 18 14 66 21 106 l12 72 61 1 c144 2 358 14
424 23 18 3 21 7 27 51 6 39 9 57 21 115 2 14 7 45 10 70 3 25 8 52 10 60 2 8
7 40 10 70 3 30 8 66 10 80 2 14 6 48 10 75 3 28 15 110 25 183 11 74 20 138
20 143 0 4 -17 6 -37 4 -202 -23 -453 -37 -453 -25 0 3 7 37 14 75 8 39 17 84
19 100 3 27 8 31 43 35 21 3 69 5 107 5 62 1 67 -1 67 -21z m-1290 -286 c-1
-13 -9 -62 -19 -110 -10 -48 -16 -90 -13 -93 3 -3 0 -5 -6 -5 -7 0 -12 4 -12
9 0 4 -34 42 -76 84 -51 52 -72 78 -63 82 19 7 172 53 182 54 4 1 7 -9 7 -21z
m-1150 -699 c134 -99 240 -194 240 -214 0 -15 -22 -25 -52 -25 -26 0 -144 62
-191 101 -26 22 -55 65 -94 142 -30 61 -49 106 -42 100 8 -6 70 -52 139 -104z"/>
</g>
</svg>
